<?xml version="1.0" encoding="UTF-8"?>
<svg id="Layer_1" xmlns="http://www.w3.org/2000/svg" version="1.1" xmlns:xlink="http://www.w3.org/1999/xlink" viewBox="0 0 33.072 27.057">
  <!-- Generator: Adobe Illustrator 30.1.0, SVG Export Plug-In . SVG Version: 2.1.1 Build 136)  -->
  <defs>
    <style>
    .characters {
      fill: #242625;
    }
    @media(prefers-color-scheme: dark) {
      .characters {
        fill: #eff1ed;
      }
    }
    .chequers {
      fill: url(#linear-gradient);
    }
    </style>
    <linearGradient id="linear-gradient" x1="25.562" y1=".007" x2="25.562" y2="27.064" gradientUnits="userSpaceOnUse">
      <stop offset="0" stop-color="#699476"/>
      <stop offset="1" stop-color="#69b576"/>
    </linearGradient>
  </defs>
  <path class="characters" d="M0,12.031V0h12.031v3.008H3.008v6.016h9.023v3.008H0ZM12.031,3.008v6.016h3.008V3.008h-3.008ZM3.008,27.057v-3.008h9.023v-3.008H3.008v-3.008h9.023v3.008h3.008v-6.016H0v12.031h3.008Z"/>
  <path class="chequers" d="M21.061,27.064v-3.008h-3.008v3.008M21.054,6.024h-3.008v3.008h3.008s0-3.008,0-3.008ZM21.054,3.015V.007h-3.008v3.008s3.008,0,3.008,0ZM21.054,3.015v3.008h3.008v-3.008s-3.008,0-3.008,0ZM27.07,6.024h-3.008v3.008h3.008s0-3.008,0-3.008ZM27.07,3.015V.007h-3.008v3.008s3.008,0,3.008,0ZM27.07,3.015v3.008h3.008v-3.008s-3.008,0-3.008,0ZM33.072,6.024h-2.995v3.008h2.995s0-3.008,0-3.008ZM33.072,3.015V.007h-2.995v3.008s2.995,0,2.995,0ZM21.054,18.048h-3.008v3.008h3.008v-3.008ZM21.054,15.04v-3.008h-3.008v3.008s3.008,0,3.008,0ZM21.054,15.04v3.008h3.008v-3.008s-3.008,0-3.008,0ZM21.054,12.033h3.008v-2.995h-3.008v2.995ZM27.07,18.048h-3.008v3.008h3.008v-3.008ZM27.07,15.04v-3.008h-3.008v3.008s3.008,0,3.008,0ZM27.07,15.04v3.008h3.008v-3.008s-3.008,0-3.008,0ZM27.07,12.033h3.008v-2.995h-3.008v2.995ZM33.072,18.048h-2.995v3.008h2.995v-3.008ZM33.072,15.04v-3.008h-2.995v3.008s2.995,0,2.995,0ZM21.054,24.056h3.008v-2.995h-3.008v2.995ZM27.07,24.056h3.008v-2.995h-3.008v2.995ZM27.077,27.064v-3.008h-3.008v3.008M33.079,27.064v-3.008h-2.995v3.008"/>
</svg>