<?xml version="1.0" encoding="UTF-8"?>
<svg id="Layer_1" xmlns="http://www.w3.org/2000/svg" version="1.1" xmlns:xlink="http://www.w3.org/1999/xlink" viewBox="0 0 240.63 50.348">
  <!-- Generator: Adobe Illustrator 30.1.0, SVG Export Plug-In . SVG Version: 2.1.1 Build 136)  -->
  <defs>
    <style>
      .st0 {
        fill: url(#linear-gradient1);
      }

    .st1 {
      fill: #242625;
    }
    @media(prefers-color-scheme: dark) {
      .st1 {
        fill: #eff1ed;
      }
    }

      .st2 {
        fill: url(#linear-gradient);
      }
    </style>
    <linearGradient id="linear-gradient" x1="179.076" y1="39.154" x2="240.618" y2="39.154" gradientUnits="userSpaceOnUse">
      <stop offset="0" stop-color="#699476"/>
      <stop offset="1" stop-color="#69b576"/>
    </linearGradient>
    <linearGradient id="linear-gradient1" x1="556.281" y1="39.154" x2="617.823" y2="39.154" gradientTransform="translate(617.835) rotate(-180) scale(1 -1)" xlink:href="#linear-gradient"/>
  </defs>
  <path class="st1" d="M0,22.388V0h22.388v5.597H5.597v11.194h16.791v5.597H0ZM22.388,5.597v11.194h5.597V5.597h-5.597ZM36.38,0l-5.597,5.597v16.791h22.388l5.597-5.597V0h-22.388ZM53.171,16.791h-16.791V5.597h16.791v11.194ZM187.472,0l-5.597,5.597v16.791h22.388l5.597-5.597V0h-22.388ZM204.262,16.791h-16.791V5.597h16.791v11.194ZM61.566,22.388V5.597L67.163,0h5.597v5.597h-5.597v16.791h-5.597ZM89.55,22.388V0h-5.597v11.194h-5.597v5.597h5.597v5.597h5.597ZM78.357,11.194v-5.597h-5.597v5.597h5.597ZM100.707,22.388V5.597L106.304,0h5.597v5.597h-5.597v16.791h-5.597ZM128.692,22.388V0h-5.597v11.194h-5.597v5.597h5.597v5.597h5.597ZM117.498,11.194v-5.597h-5.597v5.597h5.597ZM212.645,22.388V5.597L218.242,0h5.597v5.597h-5.597v16.791h-5.597ZM240.63,22.388V0h-5.597v11.194h-5.597v5.597h5.597v5.597h5.597ZM229.436,11.194v-5.597h-5.597v5.597h5.597ZM97.934,22.388V0l-5.572,5.597v16.791h5.572ZM142.684,22.388v-5.597h-5.597V5.597h16.791S159.475,0,159.475,0h-27.985v22.388h11.194ZM159.475,22.388v-11.194h-16.791v5.597h11.194v5.597h5.597ZM173.479,22.388V5.597h5.597L184.673,0h-22.388l-5.609,5.597h11.206v16.791h5.597Z"/>
  <path class="st2" d="M184.673,44.738h-5.597s0,5.597,0,5.597h5.597s0-5.597,0-5.597ZM184.673,39.141v-5.597s-5.597,0-5.597,0v5.597s5.597,0,5.597,0ZM184.673,39.141v5.597s5.597,0,5.597,0v-5.597s-5.597,0-5.597,0ZM184.673,33.545h5.597s0-5.572,0-5.572h-5.597s0,5.572,0,5.572ZM195.867,44.738h-5.597s0,5.597,0,5.597h5.597s0-5.597,0-5.597ZM195.867,39.141v-5.597s-5.597,0-5.597,0v5.597s5.597,0,5.597,0ZM195.867,39.141v5.597s5.597,0,5.597,0v-5.597s-5.597,0-5.597,0ZM195.867,33.545h5.597s0-5.572,0-5.572h-5.597s0,5.572,0,5.572ZM207.036,44.738h-5.572s0,5.597,0,5.597h5.572s0-5.597,0-5.597ZM207.036,39.141v-5.597s-5.572,0-5.572,0v5.597s5.572,0,5.572,0ZM207.036,39.141v5.597s5.597,0,5.597,0v-5.597s-5.597,0-5.597,0ZM207.036,33.545h5.597s0-5.572,0-5.572h-5.597s0,5.572,0,5.572ZM218.23,44.738h-5.597s0,5.597,0,5.597h5.597s0-5.597,0-5.597ZM218.23,39.141v-5.597s-5.597,0-5.597,0v5.597s5.597,0,5.597,0ZM218.23,39.141v5.597s5.597,0,5.597,0v-5.597s-5.597,0-5.597,0ZM218.23,33.545h5.597s0-5.572,0-5.572h-5.597s0,5.572,0,5.572ZM229.424,44.738h-5.597s0,5.597,0,5.597h5.597s0-5.597,0-5.597ZM229.424,39.141v-5.597s-5.597,0-5.597,0v5.597s5.597,0,5.597,0ZM229.424,39.141v5.597s5.597,0,5.597,0v-5.597s-5.597,0-5.597,0ZM229.424,33.545h5.597s0-5.572,0-5.572h-5.597s0,5.572,0,5.572ZM240.618,44.738h-5.597s0,5.597,0,5.597h5.597s0-5.597,0-5.597ZM240.618,39.141v-5.597s-5.597,0-5.597,0v5.597s5.597,0,5.597,0Z"/>
  <path class="st0" d="M55.957,50.335h5.597v-5.597h-5.597v5.597ZM61.554,39.141v-5.597s-5.597,0-5.597,0v5.597s5.597,0,5.597,0ZM50.36,39.141v5.597s5.597,0,5.597,0v-5.597s-5.597,0-5.597,0ZM55.957,27.972h-5.597s0,5.572,0,5.572h5.597v-5.572ZM44.763,50.335h5.597v-5.597h-5.597v5.597ZM50.36,39.141v-5.597s-5.597,0-5.597,0v5.597s5.597,0,5.597,0ZM39.166,39.141v5.597s5.597,0,5.597,0v-5.597s-5.597,0-5.597,0ZM44.763,27.972h-5.597s0,5.572,0,5.572h5.597s0-5.572,0-5.572ZM33.593,50.335h5.572s0-5.597,0-5.597h-5.572s0,5.597,0,5.597ZM39.166,39.141v-5.597s-5.572,0-5.572,0v5.597s5.572,0,5.572,0ZM27.996,39.141v5.597s5.597,0,5.597,0v-5.597s-5.597,0-5.597,0ZM33.593,27.972h-5.597v5.572s5.597,0,5.597,0v-5.572ZM22.4,50.335h5.597v-5.597h-5.597v5.597ZM27.996,39.141v-5.597s-5.597,0-5.597,0v5.597h5.597ZM16.803,39.141v5.597s5.597,0,5.597,0v-5.597s-5.597,0-5.597,0ZM22.4,27.972h-5.597s0,5.572,0,5.572h5.597v-5.572ZM11.206,50.335h5.597s0-5.597,0-5.597h-5.597s0,5.597,0,5.597ZM16.803,39.141v-5.597s-5.597,0-5.597,0v5.597s5.597,0,5.597,0ZM5.609,39.141v5.597s5.597,0,5.597,0v-5.597s-5.597,0-5.597,0ZM11.206,27.972h-5.597s0,5.572,0,5.572h5.597v-5.572ZM.012,50.335h5.597v-5.597H.012v5.597ZM5.609,39.141v-5.597s-5.597,0-5.597,0v5.597s5.597,0,5.597,0Z"/>
  <path class="st1" d="M68.562,50.348v-5.597h16.791v-5.597h-16.791v-5.597h16.791v5.597h5.597v-11.194h-27.985v22.388h5.597ZM99.345,27.96l-5.597,5.597v16.791h5.597v-5.597h16.791v5.597h5.597v-22.388h-22.388ZM116.135,39.154h-16.791v-5.597h16.791v5.597ZM124.531,50.348v-16.791l5.597-5.597h16.791v5.597h-16.791s0,5.597,0,5.597h16.791v5.597h-16.791v5.597h-5.597ZM152.515,50.348v-5.597h-5.597v5.597h5.597ZM152.515,39.154v-5.597h-5.597v5.597h5.597ZM172.08,50.348v-5.597h5.597v5.597h-5.597ZM177.677,33.557v-5.597h-5.597v5.597h5.597ZM160.874,50.348v-5.597h11.194v-11.194h-5.597v5.597h-5.597v-11.194l-5.572,5.597v16.791h5.572Z"/>
</svg>